<svg version="1.1" xmlns="http://www.w3.org/2000/svg" xmlns:xlink="http://www.w3.org/1999/xlink" viewBox="0 0 114 24" preserveAspectRatio="xMidYMid" width="114" height="24"><path fill="#00B0FF" d="M92,7h14c4.4,0,8,3.6,8,8l0,0c0,4.4-3.6,8-8,8H92c-4.4,0-8-3.6-8-8l0,0C84,10.6,87.6,7,92,7
z"/><path fill="#fff" d="M105.6,19h-1.7l-3-8.1h2.1l1.1,3.2c0.2,0.5,0.3,0.9,0.4,1.4c0.1,0.4,0.2,0.8,0.3,1.1
c0.1-0.3,0.2-0.7,0.3-1.1c0.1-0.4,0.3-0.9,0.4-1.4l1.1-3.3h2L105.6,19z M101.5,19h-4.8v-8.1h2v6.7h2.9L101.5,19L101.5,19z
M91.7,14.2h2.7l-0.2,1.4h-2.4V19h-2v-8.1h5.2v1.4h-3.2C91.7,12.3,91.7,14.2,91.7,14.2z M76.3,15.5c-0.9,0.5-1.8,1-2.8,1.2
c-1.2,0.3-2.4,0.5-3.7,0.5c0.1,0.5,0.2,0.9,0.3,1.3c0.1,0.4,0.3,0.8,0.6,1.1c0.3,0.3,0.6,0.6,1,0.8c0.5,0.2,1,0.3,1.6,0.3
c0.5,0,1-0.1,1.5-0.2c0.5-0.1,1-0.2,1.4-0.4c0.5-0.2,1-0.4,1.5-0.6l0.9,2.2c-0.6,0.3-1.1,0.5-1.7,0.7c-0.6,0.2-1.2,0.4-1.9,0.5
c-0.7,0.1-1.5,0.2-2.2,0.2c-1,0-2.1-0.2-3.1-0.5c-0.8-0.3-1.5-0.9-2.1-1.5c-0.6-0.7-1-1.5-1.2-2.4c-0.3-1-0.4-2.1-0.4-3.1
c0-1.2,0.2-2.5,0.6-3.7c0.3-1,0.9-1.9,1.6-2.6c0.7-0.7,1.5-1.3,2.4-1.6c0.9-0.4,1.9-0.6,2.9-0.5c0.8,0,1.6,0.1,2.4,0.3
c0.6,0.2,1.1,0.5,1.6,0.9c0.4,0.4,0.7,0.9,0.9,1.4c0.2,0.6,0.3,1.1,0.3,1.7c0,0.8-0.2,1.5-0.6,2.1C77.7,14.4,77,15,76.3,15.5z
M74.7,10.2c-0.4-0.4-0.9-0.6-1.4-0.5c-0.6,0-1.2,0.1-1.7,0.5c-0.4,0.3-0.8,0.7-1.1,1.2c-0.3,0.5-0.5,1.1-0.6,1.7
c-0.1,0.6-0.2,1.3-0.2,1.9c0.9,0,1.7-0.1,2.5-0.4c0.6-0.2,1.2-0.4,1.7-0.8c0.4-0.3,0.7-0.6,0.9-1c0.2-0.3,0.3-0.7,0.3-1.1
C75.2,11.1,75,10.5,74.7,10.2z M59.7,12.9c0-0.7-0.1-1.4-0.4-2.1c-0.3-0.5-0.8-0.8-1.4-0.8c-0.4,0-0.8,0.1-1.2,0.3
c-0.4,0.2-0.8,0.6-1.1,0.9c-0.3,0.4-0.6,1-0.8,1.5c-0.2,0.6-0.3,1.3-0.3,1.9V23H51V12.9c0-0.7-0.1-1.4-0.4-2.1
c-0.3-0.5-0.8-0.8-1.4-0.8c-0.4,0-0.9,0.1-1.2,0.4c-0.4,0.3-0.8,0.6-1.1,1c-0.3,0.5-0.6,1.1-0.8,1.7c-0.2,0.7-0.3,1.4-0.3,2.2V23
h-3.5v-7.8c0-1-0.1-2.1-0.2-3.1c-0.1-0.7-0.3-1.4-0.5-2c-0.2-0.5-0.4-1-0.7-1.5l2.8-1.1C43.8,7.7,44,8,44.2,8.3
c0.4,0.8,0.7,1.6,0.9,2.5c0.4-1.1,1.2-2.1,2.2-2.7c0.9-0.5,1.9-0.8,3-0.8c0.9-0.1,1.8,0.2,2.5,0.8c0.6,0.6,1.1,1.3,1.3,2.1
c0.5-0.9,1.2-1.7,2.2-2.2C57.1,7.5,58,7.3,59,7.3c0.7,0,1.4,0.1,2,0.4c0.5,0.2,1,0.6,1.3,1.1c0.3,0.5,0.6,1.1,0.7,1.7
c0.2,0.7,0.2,1.5,0.2,2.2V23h-3.5L59.7,12.9L59.7,12.9z M38.2,23.1c-0.3,0-0.6,0.1-0.9,0.1c-0.9,0.1-1.9-0.3-2.5-1
c-0.6-0.7-0.9-1.6-0.9-2.5V7.6h3.5v11.7c0,0.3,0,0.7,0.2,1c0.2,0.2,0.4,0.3,0.7,0.2h0.3c0.1,0,0.2,0,0.3,0c0.1,0,0.2,0,0.3,0
l0.4,2.2c-0.2,0.1-0.4,0.2-0.6,0.2C38.7,23,38.5,23,38.2,23.1z M35.6,5c-0.6,0-1.1-0.2-1.5-0.6c-0.4-0.4-0.6-0.9-0.5-1.5
c0-0.6,0.2-1.1,0.5-1.6c0.4-0.4,1-0.7,1.6-0.6c0.6,0,1.1,0.2,1.5,0.6c0.4,0.4,0.5,1,0.5,1.5c0,0.6-0.2,1.1-0.5,1.6
C36.8,4.8,36.2,5,35.6,5L35.6,5z M26.6,13c0-0.7-0.1-1.4-0.5-2.1c-0.3-0.5-0.9-0.8-1.6-0.8c-0.5,0-1,0.1-1.4,0.4
c-0.5,0.3-0.9,0.6-1.2,1c-0.4,0.5-0.7,1.1-0.9,1.7c-0.2,0.7-0.3,1.4-0.3,2.2V23h-3.5v-7.8c0-1-0.1-2.1-0.2-3.1
c-0.1-0.7-0.3-1.4-0.5-2c-0.2-0.5-0.4-1-0.7-1.5l2.8-1.1C18.8,7.7,19,8,19.2,8.3c0.4,0.8,0.7,1.6,0.9,2.5c0.4-1.1,1.3-2.1,2.3-2.7
c1-0.5,2.1-0.8,3.2-0.8c1.3-0.1,2.6,0.4,3.5,1.4c0.8,1.1,1.1,2.5,1.1,3.9V23h-3.5L26.6,13L26.6,13z M11.5,22.3
c-0.2-0.4-0.4-0.8-0.5-1.2c-0.2-0.5-0.3-1.1-0.3-1.7c-0.3,1.1-0.8,2.1-1.7,2.8c-0.9,0.7-2,1-3.1,0.9c-0.9,0-1.7-0.2-2.5-0.5
c-0.7-0.4-1.3-0.9-1.8-1.5c-0.5-0.7-0.9-1.6-1.1-2.4c-0.2-1-0.4-2.1-0.3-3.2c0-1.1,0.2-2.2,0.5-3.3c0.3-1,0.8-1.8,1.5-2.6
c0.7-0.7,1.5-1.3,2.3-1.7c0.9-0.4,2-0.6,3-0.6c0.6,0,1.3,0,1.9,0.1c0.7,0.1,1.3,0.2,1.9,0.3S12.4,8,12.8,8c0.4,0.1,0.6,0.1,0.7,0.2
v7.3c0,1,0.1,2.1,0.2,3.1c0.1,0.7,0.3,1.4,0.5,2c0.2,0.5,0.4,1,0.7,1.5l-2.8,1.1C11.9,23,11.7,22.6,11.5,22.3L11.5,22.3z M9.9,10.1
C9.7,10.1,9.4,10,9,9.9C8.6,9.8,8.3,9.8,7.9,9.8c-0.7,0-1.3,0.1-1.9,0.4c-0.5,0.3-0.9,0.6-1.2,1.1c-0.3,0.5-0.5,1.1-0.7,1.7
c-0.1,0.7-0.2,1.4-0.2,2.2c0,0.7,0,1.4,0.1,2.1c0,0.6,0.1,1.2,0.3,1.8c0.1,0.5,0.4,0.9,0.8,1.2c0.4,0.3,0.8,0.5,1.3,0.5
c0.5,0,1-0.2,1.4-0.5c0.5-0.4,0.8-0.9,1.1-1.4c0.3-0.6,0.6-1.3,0.7-2c0.2-0.7,0.3-1.5,0.3-2.2V10.1z"/></svg>